<?xml version="1.0" standalone="no"?>
<!DOCTYPE svg PUBLIC "-//W3C//DTD SVG 20010904//EN"
 "http://www.w3.org/TR/2001/REC-SVG-20010904/DTD/svg10.dtd">
<svg version="1.0" xmlns="http://www.w3.org/2000/svg"
 width="1024.000000pt" height="1024.000000pt" viewBox="0 0 1024.000000 1024.000000"
 preserveAspectRatio="xMidYMid meet">

<g transform="translate(0.000000,1024.000000) scale(0.100000,-0.100000)"
fill="#000000" stroke="none">
<path d="M4448 8217 c-60 -158 -182 -299 -363 -416 -114 -75 -159 -98 -460
-238 -192 -89 -297 -153 -346 -212 -16 -20 -49 -77 -73 -126 -27 -56 -57 -103
-79 -122 -75 -66 -312 -136 -468 -138 -87 -1 -100 -4 -151 -32 l-56 -32 -6 31
c-3 17 -6 43 -6 59 0 38 -10 41 -55 16 -55 -30 -85 -92 -85 -172 1 -37 7 -72
18 -91 25 -45 48 -92 75 -154 13 -31 38 -72 55 -91 29 -34 107 -78 117 -67 3
2 -2 27 -10 54 -8 27 -15 51 -15 52 0 2 14 -8 31 -22 32 -27 149 -86 170 -86
8 0 6 6 -4 18 -24 26 -47 87 -47 122 0 16 2 30 4 30 2 0 25 -12 51 -27 36 -19
66 -27 121 -31 44 -3 74 -1 74 5 0 5 -11 20 -25 33 -40 38 -31 69 30 102 54
29 261 86 410 114 101 18 250 15 300 -7 l30 -13 -40 -3 c-185 -14 -240 -41
-400 -193 -183 -174 -274 -228 -410 -245 -53 -6 -57 -8 -41 -20 27 -20 117
-29 175 -16 74 16 157 56 327 159 84 51 157 92 163 92 19 0 -240 -296 -314
-359 -104 -88 -222 -106 -333 -50 -34 17 -62 35 -62 40 0 5 -5 9 -10 9 -25 0
24 -141 70 -198 31 -39 57 -58 145 -101 59 -29 122 -63 139 -75 67 -51 139
-79 213 -84 103 -7 116 1 64 38 -23 17 -50 45 -61 63 -10 18 -24 38 -30 45
-18 20 -7 23 29 11 39 -14 175 -7 216 10 l30 13 -44 17 c-50 20 -89 54 -102
89 -63 166 174 404 459 458 79 15 104 16 173 6 104 -15 194 -58 259 -124 l50
-51 -6 34 c-21 107 -97 239 -170 291 -24 17 -42 33 -40 36 3 2 37 -6 76 -19
112 -35 200 -99 262 -189 17 -25 17 -25 17 30 2 150 -57 297 -154 389 -31 29
-54 55 -52 58 12 11 171 -82 226 -133 183 -169 216 -405 89 -634 -42 -76 -112
-164 -250 -316 -262 -288 -342 -421 -363 -599 l-7 -59 64 60 c50 47 149 110
221 142 11 5 8 -1457 -3 -1603 -20 -238 -56 -340 -158 -447 -143 -150 -355
-176 -569 -71 -80 38 -183 144 -222 226 -99 207 -63 448 76 509 39 17 50 18
94 8 57 -14 146 -88 180 -149 l19 -36 -3 80 c-5 144 -80 255 -215 318 -57 27
-81 32 -163 35 -172 7 -285 -35 -405 -153 -119 -117 -173 -259 -174 -451 0
-261 106 -494 321 -700 186 -179 399 -302 694 -404 250 -86 464 -129 949 -190
176 -23 397 -52 490 -66 248 -37 302 -43 392 -44 150 0 308 39 431 108 50 28
68 49 32 38 -53 -17 -204 -18 -288 -2 -47 8 -88 19 -93 24 -5 5 37 21 93 36
289 77 485 187 737 412 242 217 382 288 597 303 l100 7 -55 27 c-211 101 -630
56 -905 -98 -33 -18 -107 -68 -165 -110 -58 -42 -121 -85 -140 -95 -54 -28
-104 -30 -114 -4 -6 16 38 113 74 164 11 15 20 31 20 34 0 30 -148 -49 -285
-151 -167 -125 -235 -169 -319 -209 -67 -32 -176 -56 -176 -39 0 4 28 53 63
108 35 56 82 137 105 179 48 91 43 95 -53 49 -62 -29 -120 -71 -265 -191 -133
-110 -275 -170 -400 -170 -103 1 -298 40 -260 52 8 3 56 20 105 38 341 123
603 432 686 806 21 97 22 117 25 1039 4 1140 7 1252 33 1475 24 206 27 419 6
505 -18 76 -18 85 -1 85 21 0 146 -67 175 -93 l24 -22 -7 40 c-11 59 -58 151
-128 250 -122 172 -235 272 -358 318 l-62 24 31 22 c78 56 239 111 325 111 25
0 46 4 46 9 0 5 -26 19 -57 31 -80 31 -219 34 -393 10 -74 -11 -162 -19 -195
-19 -55 -1 -169 19 -181 32 -3 2 33 19 78 37 138 55 292 134 356 183 119 92
208 217 246 346 17 57 22 141 8 141 -4 0 -18 -21 -32 -47 -32 -62 -157 -185
-248 -246 -94 -63 -233 -128 -366 -172 -105 -34 -252 -65 -305 -65 l-26 1 30
16 c45 24 174 121 227 171 106 99 170 238 170 373 0 70 -17 159 -31 159 -3 0
-18 -33 -33 -73z m-764 -897 c-33 -21 -93 -68 -134 -102 -76 -64 -120 -90
-172 -103 -27 -7 -28 -6 -28 32 0 21 7 48 15 61 30 42 143 95 285 133 95 25
98 23 34 -21z"/>
<path d="M5295 6983 c10 -16 29 -44 42 -63 33 -50 78 -170 99 -270 18 -80 19
-157 19 -1395 0 -1063 -3 -1324 -14 -1385 -24 -134 -59 -226 -117 -311 l-54
-80 772 4 c674 3 783 6 848 20 427 95 710 366 796 761 23 102 22 347 0 451
-49 224 -162 403 -338 536 -91 68 -207 129 -291 154 -31 9 -57 19 -57 23 0 4
26 23 57 42 76 47 191 160 241 238 176 274 177 643 2 902 -101 149 -272 282
-441 342 -160 56 -190 58 -916 58 l-665 0 17 -27z m1175 -352 c168 -57 286
-187 326 -357 22 -94 15 -256 -15 -339 -63 -177 -214 -304 -404 -340 -43 -8
-135 -15 -203 -15 l-124 0 0 541 0 541 178 -4 c148 -4 187 -9 242 -27z m-60
-1411 c233 -25 399 -110 515 -265 205 -274 170 -738 -72 -954 -75 -67 -154
-107 -270 -138 -86 -22 -125 -26 -315 -30 l-218 -6 0 702 0 701 133 0 c72 0
175 -5 227 -10z"/>
</g>
</svg>
